<svg width="472" height="416" viewBox="0 0 472 416" fill="none" xmlns="http://www.w3.org/2000/svg">
<path d="M433.601 39.001C408.901 14.301 376.201 0.800978 341.301 0.800978C306.401 0.800978 273.601 14.401 248.901 39.101L236.001 52.001L222.901 38.901C198.201 14.201 165.301 0.500977 130.401 0.500977C95.601 0.500977 62.801 14.101 38.201 38.701C13.501 63.401 -0.0989947 96.201 0.00100534 131.101C0.00100534 166.001 13.701 198.701 38.401 223.401L226.201 411.201C228.801 413.801 232.301 415.201 235.701 415.201C239.101 415.201 242.601 413.901 245.201 411.301L433.401 223.801C458.101 199.101 471.701 166.301 471.701 131.401C471.801 96.501 458.301 63.701 433.601 39.001Z" fill="black"/>
</svg>
